<mxfile host="app.diagrams.net" modified="2023-06-22T09:31:08.136Z" agent="Mozilla/5.0 (Windows NT 10.0; Win64; x64) AppleWebKit/537.36 (KHTML, like Gecko) Chrome/114.0.0.0 Safari/537.36 Edg/114.0.1823.51" etag="zm2aqhXMg8ZUcSnfynoX" version="21.3.7" type="github">
  <diagram name="Страница 1" id="DXIM4SOPoYEkraXeZyPg">
    <mxGraphModel dx="1392" dy="782" grid="1" gridSize="10" guides="1" tooltips="1" connect="1" arrows="1" fold="1" page="1" pageScale="1" pageWidth="827" pageHeight="1169" math="0" shadow="0">
      <root>
        <mxCell id="0" />
        <mxCell id="1" parent="0" />
        <mxCell id="_m1IXE5WfdxgznO0_eeU-7" value="" style="rounded=0;whiteSpace=wrap;html=1;" parent="1" vertex="1">
          <mxGeometry x="50" y="85" width="150" height="260" as="geometry" />
        </mxCell>
        <mxCell id="_m1IXE5WfdxgznO0_eeU-9" value="Click" style="rounded=0;whiteSpace=wrap;html=1;" parent="1" vertex="1">
          <mxGeometry x="65" y="100" width="120" height="20" as="geometry" />
        </mxCell>
        <mxCell id="_m1IXE5WfdxgznO0_eeU-10" value="Payme" style="rounded=0;whiteSpace=wrap;html=1;" parent="1" vertex="1">
          <mxGeometry x="65" y="130" width="120" height="20" as="geometry" />
        </mxCell>
        <mxCell id="_m1IXE5WfdxgznO0_eeU-11" value="Apelsin" style="rounded=0;whiteSpace=wrap;html=1;" parent="1" vertex="1">
          <mxGeometry x="65" y="160" width="120" height="20" as="geometry" />
        </mxCell>
        <mxCell id="_m1IXE5WfdxgznO0_eeU-12" value="" style="rounded=0;whiteSpace=wrap;html=1;" parent="1" vertex="1">
          <mxGeometry x="65" y="190" width="120" height="20" as="geometry" />
        </mxCell>
        <mxCell id="_m1IXE5WfdxgznO0_eeU-13" value="" style="rounded=0;whiteSpace=wrap;html=1;" parent="1" vertex="1">
          <mxGeometry x="65" y="220" width="120" height="20" as="geometry" />
        </mxCell>
        <mxCell id="_m1IXE5WfdxgznO0_eeU-14" value="" style="rounded=0;whiteSpace=wrap;html=1;" parent="1" vertex="1">
          <mxGeometry x="65" y="250" width="120" height="20" as="geometry" />
        </mxCell>
        <mxCell id="_m1IXE5WfdxgznO0_eeU-15" value="" style="rounded=0;whiteSpace=wrap;html=1;" parent="1" vertex="1">
          <mxGeometry x="65" y="280" width="120" height="20" as="geometry" />
        </mxCell>
        <mxCell id="_m1IXE5WfdxgznO0_eeU-16" value="" style="rounded=0;whiteSpace=wrap;html=1;" parent="1" vertex="1">
          <mxGeometry x="65" y="310" width="120" height="20" as="geometry" />
        </mxCell>
        <mxCell id="WJN6aViwJdulb-AaRsmn-1" value="Payment api&lt;br&gt;&lt;br&gt;&lt;br&gt;&lt;br&gt;&lt;br&gt;&lt;br&gt;&lt;br&gt;&lt;br&gt;&lt;br&gt;&lt;br&gt;&lt;br&gt;&lt;br&gt;&lt;br&gt;" style="rounded=1;whiteSpace=wrap;html=1;" vertex="1" parent="1">
          <mxGeometry x="270" y="90" width="130" height="240" as="geometry" />
        </mxCell>
        <mxCell id="WJN6aViwJdulb-AaRsmn-2" value="&lt;p style=&quot;line-height: 120%; font-size: 8px;&quot;&gt;Merchants&lt;br&gt;(Click, Payme ...)&lt;/p&gt;" style="rounded=1;whiteSpace=wrap;html=1;" vertex="1" parent="1">
          <mxGeometry x="295" y="190" width="80" height="30" as="geometry" />
        </mxCell>
        <mxCell id="WJN6aViwJdulb-AaRsmn-4" value="Client" style="ellipse;whiteSpace=wrap;html=1;" vertex="1" parent="1">
          <mxGeometry x="175" y="560" width="120" height="80" as="geometry" />
        </mxCell>
        <mxCell id="WJN6aViwJdulb-AaRsmn-5" value="RabbitMQ" style="shape=cylinder3;whiteSpace=wrap;html=1;boundedLbl=1;backgroundOutline=1;size=15;" vertex="1" parent="1">
          <mxGeometry x="400" y="570" width="60" height="80" as="geometry" />
        </mxCell>
      </root>
    </mxGraphModel>
  </diagram>
</mxfile>
